<?xml version="1.0" encoding="UTF-8"?>
<svg viewBox="0 0 56.699699 55.29895" xmlns="http://www.w3.org/2000/svg" xmlns:xlink="http://www.w3.org/1999/xlink">
 <defs>
  <linearGradient id="a">
   <stop stop-color="#a18930" offset="0"/>
   <stop stop-color="#e3c565" offset=".66667"/>
   <stop stop-color="#fffbcc" offset="1"/>
  </linearGradient>
  <linearGradient id="c" x1="32.232" x2="41.601" y1="52.825" y2="65.947" gradientUnits="userSpaceOnUse" xlink:href="#a" spreadMethod="reflect"/>
  <linearGradient id="b" x1="44.906" x2="51.25" y1="38.795" y2="47.564" gradientUnits="userSpaceOnUse" xlink:href="#a" spreadMethod="reflect"/>
 </defs>
 <g transform="translate(-357.52 -588.51)">
  <path d="m385.71 589.51c7.668 5e-5 14.102 2.3662 19.302 7.0984 5.4667 5.0008 8.2 11.434 8.2001 19.299-5e-5 7.4016-2.6337 13.735-7.901 19.002s-11.834 7.8995-19.699 7.8995c-7.4667 0-13.85-2.5833-19.15-7.7499s-7.9498-11.45-7.9498-18.849c-1e-5 -7.7331 2.5833-14.116 7.7499-19.15s11.649-7.55 19.447-7.55zm0.10071 13.998c-3.3997 4e-5 -6.2663 1.2335-8.5998 3.7003s-3.5004 5.4001-3.5004 8.7997c-2e-5 3.3346 1.1836 6.3019 3.5507 8.902s5.217 3.9002 8.5495 3.9002 6.2016-1.3336 8.6014-4.0009 3.5995-5.6345 3.5996-8.902c-5e-5 -3.3325-1.1999-6.2322-3.5996-8.699s-5.2669-3.7002-8.6014-3.7003z" fill="url(#c)" stroke="url(#b)" stroke-width="2"/>
 </g>
</svg>
